<?xml version="1.0" encoding="iso-8859-1"?>
<!-- Generator: Adobe Illustrator 19.0.0, SVG Export Plug-In . SVG Version: 6.00 Build 0)  -->
<svg version="1.1" id="Layer_1" xmlns="http://www.w3.org/2000/svg" xmlns:xlink="http://www.w3.org/1999/xlink" x="0px" y="0px"
	 viewBox="0 0 512 512" style="enable-background:new 0 0 512 512;" xml:space="preserve">
<ellipse style="fill:#FFE6B8;" cx="256" cy="255.999" rx="245.801" ry="145.655"/>
<circle style="fill:#FFAD61;" cx="256" cy="255.999" r="111.263"/>
<circle style="fill:#CCCCCC;" cx="323.774" cy="188.226" r="43.496"/>
<circle style="fill:#D35B38;" cx="256" cy="255.999" r="23.265"/>
<g>
	<path style="fill:#4D3D36;" d="M435.007,144.228c-47.976-28.43-111.549-44.087-179.007-44.087s-131.031,15.658-179.007,44.088
		C27.343,173.651,0,213.345,0,255.999s27.343,82.348,76.993,111.771c47.976,28.43,111.549,44.088,179.007,44.088
		s131.031-15.658,179.007-44.088C484.657,338.348,512,298.654,512,255.999S484.657,173.651,435.007,144.228z M424.607,350.222
		C379.733,376.814,319.853,391.459,256,391.459s-123.733-14.645-168.607-41.238c-43.202-25.6-66.994-59.062-66.994-94.221
		s23.793-68.621,66.994-94.222c44.875-26.592,104.754-41.238,168.607-41.238s123.733,14.645,168.607,41.238
		c43.202,25.601,66.995,59.063,66.995,94.222S467.809,324.621,424.607,350.222z"/>
	<path style="fill:#4D3D36;" d="M323.773,134.532c-9.71,0-18.818,2.604-26.685,7.13c-13.157-4.73-26.966-7.13-41.087-7.13
		c-66.977,0-121.467,54.49-121.467,121.467S189.023,377.467,256,377.467s121.467-54.49,121.467-121.467
		c0-14.137-2.403-27.932-7.133-41.082c4.528-7.869,7.133-16.978,7.133-26.69C377.467,158.62,353.38,134.532,323.773,134.532z
		 M357.069,188.228c0,18.36-14.937,33.296-33.296,33.296s-33.296-14.937-33.296-33.296s14.937-33.296,33.296-33.296
		C342.132,154.93,357.069,169.868,357.069,188.228z M256,357.069c-55.729,0-101.069-45.34-101.069-101.069
		S200.271,154.93,256,154.93c8.031,0,15.933,0.943,23.623,2.785c-6.011,8.671-9.546,19.185-9.546,30.512
		c0,29.607,24.087,53.695,53.695,53.695c11.331,0,21.848-3.537,30.52-9.553c1.842,7.687,2.775,15.589,2.775,23.631
		C357.069,311.729,311.729,357.069,256,357.069z"/>
	<path style="fill:#4D3D36;" d="M287.828,266.322c1.058-3.254,1.637-6.721,1.637-10.323c0-18.452-15.012-33.465-33.465-33.465
		c-4.709,0-9.192,0.982-13.26,2.746l-9.873-9.873c-3.983-3.982-10.441-3.982-14.425,0c-3.983,3.983-3.983,10.441,0,14.425
		l8.902,8.902c-3.051,5.044-4.809,10.953-4.809,17.265c0,4.98,1.102,9.705,3.061,13.956l-20.305,20.305
		c-3.983,3.983-3.983,10.441,0,14.425c1.992,1.991,4.602,2.987,7.212,2.987s5.221-0.996,7.212-2.987l19.66-19.66
		c4.902,2.818,10.576,4.44,16.624,4.44c7.356,0,14.162-2.392,19.691-6.43l15.581,15.581c1.992,1.991,4.602,2.987,7.212,2.987
		c2.61,0,5.221-0.996,7.212-2.987c3.983-3.983,3.983-10.441,0-14.425L287.828,266.322z M256,269.066
		c-7.205,0-13.066-5.861-13.066-13.066c0-7.205,5.861-13.066,13.066-13.066c7.205,0,13.066,5.861,13.066,13.066
		C269.066,263.204,263.205,269.066,256,269.066z"/>
	<path style="fill:#4D3D36;" d="M212.637,209.602c3.983-3.983,3.983-10.441,0-14.425l-2.024-2.024
		c-3.983-3.982-10.441-3.982-14.425,0c-3.983,3.983-3.983,10.441,0,14.425l2.024,2.024c1.992,1.991,4.602,2.987,7.212,2.987
		C208.034,212.59,210.645,211.593,212.637,209.602z"/>
</g>
<g>
</g>
<g>
</g>
<g>
</g>
<g>
</g>
<g>
</g>
<g>
</g>
<g>
</g>
<g>
</g>
<g>
</g>
<g>
</g>
<g>
</g>
<g>
</g>
<g>
</g>
<g>
</g>
<g>
</g>
</svg>
